<svg width="64" height="64" viewBox="0 0 64 64" fill="none" xmlns="http://www.w3.org/2000/svg">
<rect width="64" height="64" rx="4" fill="#FBF9F6"/>
<rect x="24.0029" y="20" width="2" height="2" fill="black"/>
<rect x="16.001" y="17.9979" width="2" height="2" fill="black"/>
<rect x="18.001" y="17.9979" width="2" height="2" fill="black"/>
<rect x="20" y="17.9979" width="2" height="2" fill="black"/>
<rect x="22.0059" y="17.9979" width="2" height="2" fill="black"/>
<rect x="14.002" y="19.998" width="2" height="2" fill="black"/>
<rect x="16.001" y="19.998" width="2" height="2" fill="black"/>
<rect x="18.001" y="19.998" width="2" height="2" fill="black"/>
<rect x="20" y="19.998" width="2" height="2" fill="black"/>
<rect x="22.0059" y="19.998" width="2" height="2" fill="black"/>
<rect x="14.002" y="21.998" width="2" height="2" fill="black"/>
<rect x="16.001" y="21.998" width="2" height="2" fill="black"/>
<rect x="18.001" y="21.998" width="2" height="2" fill="black"/>
<rect x="20" y="21.998" width="2" height="2" fill="black"/>
<rect x="22.0059" y="21.998" width="2" height="2" fill="black"/>
<rect x="24.0049" y="21.998" width="2" height="2" fill="black"/>
<rect x="26.0049" y="21.998" width="2" height="2" fill="black"/>
<rect x="28.0039" y="21.998" width="2" height="2" fill="black"/>
<rect x="30.0039" y="21.998" width="2" height="2" fill="black"/>
<rect x="32.0029" y="21.998" width="2" height="2" fill="black"/>
<rect x="34.0029" y="21.998" width="2" height="2" fill="black"/>
<rect x="40.0039" y="20" width="2" height="2" fill="black"/>
<rect x="38.0039" y="20" width="2" height="2" fill="black"/>
<rect x="36.0029" y="20" width="2" height="2" fill="black"/>
<rect x="34.0029" y="20" width="2" height="2" fill="black"/>
<rect x="32.0029" y="20" width="2" height="2" fill="black"/>
<rect x="30.0039" y="20" width="2" height="2" fill="black"/>
<rect x="28.0039" y="20" width="2" height="2" fill="black"/>
<rect x="14.002" y="23.9972" width="2" height="2" fill="black"/>
<rect x="16.001" y="23.9972" width="2" height="2" fill="black"/>
<rect x="18.001" y="23.9972" width="2" height="2" fill="black"/>
<rect x="20" y="23.9972" width="2" height="2" fill="black"/>
<rect x="22.0059" y="23.9972" width="2" height="2" fill="black"/>
<rect x="24.0049" y="23.9972" width="2" height="2" fill="black"/>
<rect x="26.0049" y="23.9972" width="2" height="2" fill="black"/>
<rect x="28.0039" y="23.9972" width="2" height="2" fill="black"/>
<rect x="30.0039" y="23.9972" width="2" height="2" fill="black"/>
<rect x="32.0029" y="23.9972" width="2" height="2" fill="black"/>
<rect x="34.0029" y="23.9972" width="2" height="2" fill="black"/>
<rect x="14.002" y="25.996" width="2" height="2" fill="black"/>
<rect x="16.001" y="25.996" width="2" height="2" fill="black"/>
<rect x="18.001" y="25.996" width="2" height="2" fill="black"/>
<rect x="20" y="25.996" width="2" height="2" fill="black"/>
<rect x="22.0059" y="25.996" width="2" height="2" fill="black"/>
<rect x="24.0049" y="25.996" width="2" height="2" fill="black"/>
<rect x="26.0029" y="26.0001" width="2" height="2" fill="black"/>
<rect x="28.0039" y="25.996" width="2" height="2" fill="black"/>
<rect x="30.0039" y="25.996" width="2" height="2" fill="black"/>
<rect x="32.0029" y="25.996" width="2" height="2" fill="black"/>
<rect x="34.0029" y="25.996" width="2" height="2" fill="black"/>
<rect x="14.002" y="27.996" width="2" height="2" fill="black"/>
<rect x="16.001" y="27.996" width="2" height="2" fill="black"/>
<rect x="18.001" y="27.996" width="2" height="2" fill="black"/>
<rect x="20" y="27.996" width="2" height="2" fill="black"/>
<rect x="22.0059" y="27.996" width="2" height="2" fill="black"/>
<rect x="24.0049" y="27.996" width="2" height="2" fill="black"/>
<rect x="32.0029" y="27.996" width="2" height="2" fill="black"/>
<rect x="34.0029" y="27.996" width="2" height="2" fill="black"/>
<rect x="36.0029" y="27.996" width="2" height="2" fill="black"/>
<rect x="36.0029" y="26.0001" width="2" height="2" fill="black"/>
<rect x="36.0029" y="22" width="2" height="2" fill="black"/>
<rect x="38.0039" y="27.9999" width="2" height="2" fill="black"/>
<rect x="38.0039" y="22" width="2" height="2" fill="black"/>
<rect x="14.002" y="29.9961" width="2" height="2" fill="black"/>
<rect x="16.001" y="29.9961" width="2" height="2" fill="black"/>
<rect x="18.001" y="29.9961" width="2" height="2" fill="black"/>
<rect x="20" y="29.9961" width="2" height="2" fill="black"/>
<rect x="22.0059" y="29.9961" width="2" height="2" fill="black"/>
<rect x="34.0029" y="29.9961" width="2" height="2" fill="black"/>
<rect x="36.0029" y="29.9961" width="2" height="2" fill="black"/>
<rect x="38.0039" y="30" width="2" height="2" fill="black"/>
<rect x="40.0039" y="30" width="2" height="2" fill="black"/>
<rect x="40.0039" y="22" width="2" height="2" fill="black"/>
<rect x="14.002" y="31.9951" width="2" height="2" fill="black"/>
<rect x="16.001" y="31.9951" width="2" height="2" fill="black"/>
<rect x="18.001" y="31.9951" width="2" height="2" fill="black"/>
<rect x="20" y="31.9951" width="2" height="2" fill="black"/>
<rect x="22.0059" y="31.9951" width="2" height="2" fill="black"/>
<rect x="28.0039" y="31.9951" width="2" height="2" fill="black"/>
<rect x="26.0029" y="27.9999" width="2" height="2" fill="white"/>
<rect x="26.0029" y="30" width="2" height="2" fill="white"/>
<rect x="26.0029" y="32" width="2" height="2" fill="white"/>
<rect x="26.0029" y="34" width="2" height="2" fill="white"/>
<rect x="24.0029" y="30" width="2" height="2" fill="white"/>
<rect x="24.0029" y="32" width="2" height="2" fill="white"/>
<rect x="24.0029" y="34" width="2" height="2" fill="white"/>
<rect x="26.0029" y="36.0001" width="2" height="2" fill="white"/>
<rect x="28.0039" y="36.0001" width="2" height="2" fill="white"/>
<rect x="30.0039" y="36.0001" width="2" height="2" fill="white"/>
<rect x="28.0039" y="27.9999" width="2" height="2" fill="white"/>
<rect x="28.0039" y="30" width="2" height="2" fill="white"/>
<rect x="30.0039" y="27.9999" width="2" height="2" fill="white"/>
<rect x="30.0039" y="30" width="2" height="2" fill="white"/>
<rect x="32.0029" y="30" width="2" height="2" fill="white"/>
<rect x="32.0029" y="32" width="2" height="2" fill="white"/>
<rect x="32.0029" y="34" width="2" height="2" fill="white"/>
<rect x="30.0039" y="31.9951" width="2" height="2" fill="black"/>
<rect x="34.0029" y="31.9951" width="2" height="2" fill="black"/>
<rect x="36.0029" y="31.9951" width="2" height="2" fill="black"/>
<rect x="38.002" y="31.9951" width="2" height="2" fill="black"/>
<rect x="40.002" y="31.9951" width="2" height="2" fill="black"/>
<rect x="42.0049" y="31.9951" width="2" height="2" fill="black"/>
<rect x="44.0049" y="31.9951" width="2" height="2" fill="black"/>
<rect x="14.002" y="33.9941" width="2" height="2" fill="black"/>
<rect x="16.001" y="33.9941" width="2" height="2" fill="black"/>
<rect x="18.001" y="33.9941" width="2" height="2" fill="black"/>
<rect x="20" y="33.9941" width="2" height="2" fill="black"/>
<rect x="22.0059" y="33.9941" width="2" height="2" fill="black"/>
<rect x="28.0039" y="33.9941" width="2" height="2" fill="black"/>
<rect x="30.0039" y="33.9941" width="2" height="2" fill="black"/>
<rect x="34.0029" y="33.9941" width="2" height="2" fill="black"/>
<rect x="36.0029" y="33.9941" width="2" height="2" fill="black"/>
<rect x="38.002" y="33.9941" width="2" height="2" fill="white"/>
<rect x="40.002" y="33.9941" width="2" height="2" fill="white"/>
<rect x="42.0049" y="33.9941" width="2" height="2" fill="white"/>
<rect x="44.0049" y="33.9941" width="2" height="2" fill="white"/>
<rect x="44.0049" y="33.9941" width="2" height="2" fill="white"/>
<rect x="46" y="33.9995" width="2" height="2" fill="white"/>
<rect x="48.0039" y="34" width="2" height="2" fill="black"/>
<rect x="14.002" y="36.004" width="2" height="2" fill="black"/>
<rect x="16.001" y="36.004" width="2" height="2" fill="black"/>
<rect x="18.001" y="36.004" width="2" height="2" fill="black"/>
<rect x="20" y="36.004" width="2" height="2" fill="black"/>
<rect x="22.0059" y="36.004" width="2" height="2" fill="black"/>
<rect x="24.0049" y="36.004" width="2" height="2" fill="black"/>
<rect x="32.0029" y="36.004" width="2" height="2" fill="black"/>
<rect x="34.0029" y="36.004" width="2" height="2" fill="black"/>
<rect x="36.0029" y="36.004" width="2" height="2" fill="white"/>
<rect x="38.002" y="36.004" width="2" height="2" fill="white"/>
<rect x="40.002" y="36.004" width="2" height="2" fill="white"/>
<rect x="42.0049" y="36.004" width="2" height="2" fill="white"/>
<rect x="44.0049" y="36.004" width="2" height="2" fill="white"/>
<rect x="46.0039" y="36.004" width="2" height="2" fill="white"/>
<rect x="48" y="35.9991" width="2" height="2" fill="white"/>
<rect x="12.002" y="38.004" width="2" height="2" fill="black"/>
<rect x="12.0039" y="36.0001" width="2" height="2" fill="black"/>
<rect x="12.0039" y="33.9961" width="2" height="2" fill="black"/>
<rect x="12.0039" y="31.9932" width="2" height="2" fill="black"/>
<rect x="12.0039" y="30" width="2" height="2" fill="black"/>
<rect x="14.002" y="38.004" width="2" height="2" fill="black"/>
<rect x="16.001" y="38.004" width="2" height="2" fill="black"/>
<rect x="18.001" y="38.004" width="2" height="2" fill="black"/>
<rect x="20" y="38.004" width="2" height="2" fill="black"/>
<rect x="22.0059" y="38.004" width="2" height="2" fill="black"/>
<rect x="24.0049" y="38.004" width="2" height="2" fill="black"/>
<rect x="26.0049" y="38.004" width="2" height="2" fill="black"/>
<rect x="28.0039" y="38.004" width="2" height="2" fill="black"/>
<rect x="30.0039" y="38.004" width="2" height="2" fill="black"/>
<rect x="32.0029" y="38.004" width="2" height="2" fill="black"/>
<rect x="34.0029" y="38.004" width="2" height="2" fill="white"/>
<rect x="36.0029" y="38.004" width="2" height="2" fill="white"/>
<rect x="38.002" y="38.004" width="2" height="2" fill="white"/>
<rect x="39.9902" y="37.9933" width="2" height="2" fill="white"/>
<rect x="42.0029" y="37.9999" width="2" height="2" fill="black"/>
<rect x="44.0029" y="39.9999" width="2" height="2" fill="black"/>
<rect x="46.0039" y="39.9999" width="2" height="2" fill="black"/>
<rect x="34.0029" y="42" width="2" height="2" fill="white"/>
<rect x="34.0029" y="39.9999" width="2" height="2" fill="white"/>
<rect x="36.0029" y="44" width="2" height="2" fill="white"/>
<rect x="38.0039" y="46" width="2" height="2" fill="white"/>
<rect x="38.0039" y="44" width="2" height="2" fill="black"/>
<rect x="40.0039" y="46" width="2" height="2" fill="black"/>
<rect x="40.0039" y="48.0001" width="2" height="2" fill="white"/>
<rect x="42.0029" y="48.0001" width="2" height="2" fill="white"/>
<rect x="44.0029" y="48.0001" width="2" height="2" fill="white"/>
<rect x="46.0039" y="48.0001" width="2" height="2" fill="white"/>
<rect x="46" y="49.996" width="2" height="2" fill="white"/>
<rect x="22.0039" y="44" width="2" height="2" fill="white"/>
<rect x="46.0039" y="37.9999" width="2" height="2" fill="white"/>
<rect x="46.0039" y="32.0059" width="2" height="2" fill="black"/>
<rect x="44.0029" y="37.9999" width="2" height="2" fill="black"/>
<rect x="48.0039" y="38.004" width="2" height="2" fill="white"/>
<rect x="49.999" y="37.9987" width="2" height="2" fill="white"/>
<rect x="50.0029" y="36.0001" width="2" height="2" fill="black"/>
<rect x="52.0029" y="37.9999" width="2" height="2" fill="black"/>
<rect x="12.002" y="40.0028" width="2" height="2" fill="black"/>
<rect x="14.002" y="40.0028" width="2" height="2" fill="black"/>
<rect x="16.001" y="40.0028" width="2" height="2" fill="black"/>
<rect x="18.001" y="40.0028" width="2" height="2" fill="black"/>
<rect x="20" y="40.0028" width="2" height="2" fill="black"/>
<rect x="22.0059" y="40.0028" width="2" height="2" fill="black"/>
<rect x="24.0049" y="40.0028" width="2" height="2" fill="black"/>
<rect x="26.0049" y="40.0028" width="2" height="2" fill="black"/>
<rect x="28.0039" y="40.0028" width="2" height="2" fill="black"/>
<rect x="30.0039" y="40.0028" width="2" height="2" fill="black"/>
<rect x="32.0029" y="40.0028" width="2" height="2" fill="black"/>
<rect x="36.0029" y="40.0028" width="2" height="2" fill="black"/>
<rect x="38.002" y="40.0028" width="2" height="2" fill="white"/>
<rect x="40.002" y="40.0028" width="2" height="2" fill="white"/>
<rect x="41.9893" y="39.9921" width="2" height="2" fill="white"/>
<rect x="48.0039" y="40.0028" width="2" height="2" fill="white"/>
<rect x="50.0029" y="40.0028" width="2" height="2" fill="white"/>
<rect x="52.0029" y="39.9999" width="2" height="2" fill="black"/>
<rect x="52.0029" y="42" width="2" height="2" fill="black"/>
<rect x="52.0029" y="44" width="2" height="2" fill="black"/>
<rect x="52.0029" y="46" width="2" height="2" fill="black"/>
<rect x="38.0039" y="52" width="2" height="2" fill="black"/>
<rect x="40.0039" y="52" width="2" height="2" fill="black"/>
<rect x="42.0029" y="52" width="2" height="2" fill="black"/>
<rect x="44.0029" y="52" width="2" height="2" fill="black"/>
<rect x="46.0039" y="52" width="2" height="2" fill="black"/>
<rect x="12.002" y="42.002" width="2" height="2" fill="black"/>
<rect x="14.002" y="42.002" width="2" height="2" fill="black"/>
<rect x="16.001" y="42.002" width="2" height="2" fill="black"/>
<rect x="18.001" y="42.002" width="2" height="2" fill="black"/>
<rect x="20" y="42.002" width="2" height="2" fill="black"/>
<rect x="22.0059" y="42.002" width="2" height="2" fill="black"/>
<rect x="24.0049" y="42.002" width="2" height="2" fill="black"/>
<rect x="26.0049" y="42.002" width="2" height="2" fill="black"/>
<rect x="28.0039" y="42.002" width="2" height="2" fill="black"/>
<rect x="30.0039" y="42.002" width="2" height="2" fill="black"/>
<rect x="32.0029" y="42.002" width="2" height="2" fill="black"/>
<rect x="36.0029" y="42.002" width="2" height="2" fill="black"/>
<rect x="38.002" y="42.002" width="2" height="2" fill="black"/>
<rect x="40.002" y="42.002" width="2" height="2" fill="white"/>
<rect x="42.0049" y="42.002" width="2" height="2" fill="white"/>
<rect x="44.0049" y="42.002" width="2" height="2" fill="white"/>
<rect x="46.0039" y="42.002" width="2" height="2" fill="white"/>
<rect x="48.0039" y="42.002" width="2" height="2" fill="white"/>
<rect x="50.0029" y="42.002" width="2" height="2" fill="white"/>
<rect x="10.0029" y="44.002" width="2" height="2" fill="black"/>
<rect x="10.0029" y="42" width="2" height="2" fill="black"/>
<rect x="10.0029" y="39.9979" width="2" height="2" fill="black"/>
<rect x="12.002" y="44.002" width="2" height="2" fill="black"/>
<rect x="14.002" y="44.002" width="2" height="2" fill="black"/>
<rect x="16.001" y="44.002" width="2" height="2" fill="black"/>
<rect x="18.001" y="44.002" width="2" height="2" fill="black"/>
<rect x="20" y="44.002" width="2" height="2" fill="black"/>
<rect x="22.0059" y="44.002" width="2" height="2" fill="black"/>
<rect x="24.0049" y="44.002" width="2" height="2" fill="black"/>
<rect x="26.0049" y="44.002" width="2" height="2" fill="black"/>
<rect x="28.0039" y="44.002" width="2" height="2" fill="black"/>
<rect x="30.0039" y="44.002" width="2" height="2" fill="black"/>
<rect x="32.0029" y="44.002" width="2" height="2" fill="black"/>
<rect x="34.0029" y="44" width="2" height="2" fill="white"/>
<rect x="36.0029" y="46" width="2" height="2" fill="white"/>
<rect x="40.002" y="44.002" width="2" height="2" fill="black"/>
<rect x="42.0049" y="44.002" width="2" height="2" fill="white"/>
<rect x="44.0049" y="44.002" width="2" height="2" fill="white"/>
<rect x="46.0039" y="44.002" width="2" height="2" fill="white"/>
<rect x="48.0039" y="44.002" width="2" height="2" fill="white"/>
<rect x="50.0029" y="44.002" width="2" height="2" fill="white"/>
<rect x="10.0029" y="46.002" width="2" height="2" fill="black"/>
<rect x="12.002" y="46.002" width="2" height="2" fill="black"/>
<rect x="14.002" y="46.002" width="2" height="2" fill="black"/>
<rect x="16.001" y="46.002" width="2" height="2" fill="black"/>
<rect x="18.001" y="46.002" width="2" height="2" fill="black"/>
<rect x="20" y="46.002" width="2" height="2" fill="black"/>
<rect x="22.0059" y="46.002" width="2" height="2" fill="black"/>
<rect x="24.0049" y="46.002" width="2" height="2" fill="black"/>
<rect x="26.0049" y="46.002" width="2" height="2" fill="black"/>
<rect x="28.0039" y="46.002" width="2" height="2" fill="black"/>
<rect x="30.0039" y="46.002" width="2" height="2" fill="black"/>
<rect x="32.0029" y="46.002" width="2" height="2" fill="black"/>
<rect x="34.0029" y="46.002" width="2" height="2" fill="white"/>
<rect x="38.0039" y="48.0001" width="2" height="2" fill="white"/>
<rect x="42.0049" y="46.002" width="2" height="2" fill="black"/>
<rect x="44.0029" y="46" width="2" height="2" fill="black"/>
<rect x="46.0039" y="46" width="2" height="2" fill="black"/>
<rect x="48.0039" y="46.002" width="2" height="2" fill="white"/>
<rect x="50.0029" y="46.002" width="2" height="2" fill="white"/>
<rect x="10.0029" y="48.0011" width="2" height="2" fill="black"/>
<rect x="12.002" y="48.0011" width="2" height="2" fill="black"/>
<rect x="14.002" y="48.0011" width="2" height="2" fill="black"/>
<rect x="16.001" y="48.0011" width="2" height="2" fill="black"/>
<rect x="18.001" y="48.0011" width="2" height="2" fill="black"/>
<rect x="20" y="48.0011" width="2" height="2" fill="black"/>
<rect x="22.0059" y="48.0011" width="2" height="2" fill="black"/>
<rect x="24.0049" y="48.0011" width="2" height="2" fill="black"/>
<rect x="26.0049" y="48.0011" width="2" height="2" fill="black"/>
<rect x="28.0039" y="48.0011" width="2" height="2" fill="black"/>
<rect x="30.0039" y="48.0011" width="2" height="2" fill="black"/>
<rect x="32.0029" y="48.0011" width="2" height="2" fill="black"/>
<rect x="34.0029" y="48.0011" width="2" height="2" fill="black"/>
<rect x="36.0029" y="48.0011" width="2" height="2" fill="white"/>
<rect x="48.0039" y="48.0011" width="2" height="2" fill="white"/>
<rect x="50.0029" y="48.0011" width="2" height="2" fill="black"/>
<rect x="10.0029" y="49.9999" width="2" height="2" fill="black"/>
<rect x="12.002" y="49.9999" width="2" height="2" fill="black"/>
<rect x="14.002" y="49.9999" width="2" height="2" fill="black"/>
<rect x="16.001" y="49.9999" width="2" height="2" fill="black"/>
<rect x="18.001" y="49.9999" width="2" height="2" fill="black"/>
<rect x="20" y="49.9999" width="2" height="2" fill="black"/>
<rect x="22.0059" y="49.9999" width="2" height="2" fill="black"/>
<rect x="24.0049" y="49.9999" width="2" height="2" fill="black"/>
<rect x="26.0049" y="49.9999" width="2" height="2" fill="black"/>
<rect x="38.002" y="49.9999" width="2" height="2" fill="white"/>
<rect x="36.0029" y="49.9999" width="2" height="2" fill="black"/>
<rect x="40.002" y="49.9999" width="2" height="2" fill="white"/>
<rect x="42.0049" y="49.9999" width="2" height="2" fill="white"/>
<rect x="44.0049" y="49.9999" width="2" height="2" fill="white"/>
<rect x="48.0039" y="49.9999" width="2" height="2" fill="black"/>
<rect x="10.0029" y="52" width="2" height="2" fill="black"/>
<rect x="12.002" y="52" width="2" height="2" fill="black"/>
<rect x="14.002" y="52" width="2" height="2" fill="black"/>
<rect x="16.001" y="52" width="2" height="2" fill="black"/>
<rect x="18.001" y="52" width="2" height="2" fill="black"/>
<rect x="20" y="52" width="2" height="2" fill="black"/>
<rect x="22.0059" y="52" width="2" height="2" fill="black"/>
<rect x="24.0049" y="52" width="2" height="2" fill="black"/>
<rect x="26.0049" y="52" width="2" height="2" fill="black"/>
<rect x="28.0039" y="52" width="2" height="2" fill="black"/>
<rect x="28.0039" y="49.9999" width="2" height="2" fill="black"/>
<rect x="32.0029" y="15.9999" width="2" height="2" fill="black"/>
<rect x="34.001" y="15.9999" width="2" height="2" fill="black"/>
<rect x="36.001" y="15.9999" width="2" height="2" fill="black"/>
<rect x="38.002" y="15.9999" width="2" height="2" fill="black"/>
<rect x="40" y="15.9999" width="2" height="2" fill="black"/>
<rect x="42.0049" y="15.9999" width="2" height="2" fill="black"/>
<rect x="44.0049" y="15.9999" width="2" height="2" fill="black"/>
<rect x="46.0039" y="15.9999" width="2" height="2" fill="black"/>
<rect x="30.002" y="17.9989" width="2" height="2" fill="black"/>
<rect x="32.0029" y="17.9989" width="2" height="2" fill="black"/>
<rect x="34.001" y="17.9989" width="2" height="2" fill="black"/>
<rect x="36.001" y="17.9989" width="2" height="2" fill="black"/>
<rect x="38.002" y="17.9989" width="2" height="2" fill="black"/>
<rect x="40" y="17.9989" width="2" height="2" fill="black"/>
<rect x="42.0049" y="17.9989" width="2" height="2" fill="black"/>
<rect x="44.0049" y="17.9989" width="2" height="2" fill="black"/>
<rect x="28.0039" y="19.999" width="2" height="2" fill="black"/>
<rect x="30.002" y="19.999" width="2" height="2" fill="black"/>
<rect x="32.0029" y="19.999" width="2" height="2" fill="black"/>
<rect x="34.001" y="19.999" width="2" height="2" fill="black"/>
<rect x="36.001" y="19.999" width="2" height="2" fill="black"/>
<rect x="38.002" y="19.999" width="2" height="2" fill="black"/>
<rect x="40" y="19.999" width="2" height="2" fill="black"/>
<rect x="42.0049" y="19.999" width="2" height="2" fill="black"/>
<rect x="22.0059" y="12" width="2" height="2" fill="black"/>
<rect x="24.0049" y="12" width="2" height="2" fill="black"/>
<rect x="24.0029" y="10" width="2" height="2" fill="black"/>
<rect x="22.0059" y="14.0001" width="2" height="2" fill="black"/>
<rect x="24.0049" y="14.0001" width="2" height="2" fill="black"/>
<rect x="18.0029" y="15.9989" width="2" height="2" fill="black"/>
<rect x="20.002" y="15.9989" width="2" height="2" fill="black"/>
<rect x="20.0039" y="14.0001" width="2" height="2" fill="black"/>
<rect x="22.0059" y="15.9989" width="2" height="2" fill="black"/>
<rect x="24.0049" y="15.9989" width="2" height="2" fill="black"/>
<rect x="16.0029" y="17.9979" width="2" height="2" fill="black"/>
<rect x="18.0029" y="17.9979" width="2" height="2" fill="black"/>
<rect x="20.002" y="17.9979" width="2" height="2" fill="black"/>
<rect x="22.0059" y="17.9979" width="2" height="2" fill="black"/>
<rect x="24.0049" y="17.9979" width="2" height="2" fill="black"/>
</svg>
