<svg width="44" height="44" viewBox="0 0 44 44" fill="none" xmlns="http://www.w3.org/2000/svg">
<path d="M14 10H16V12H14V10Z" fill="black"/>
<path d="M7.99805 7.99805H9.99805V9.99805H7.99805V7.99805Z" fill="black"/>
<path d="M9.99805 7.99805H11.998V9.99805H9.99805V7.99805Z" fill="black"/>
<path d="M12.002 7.99805H14.002V9.99805H12.002V7.99805Z" fill="black"/>
<path d="M4 9.99805H6V11.998H4V9.99805Z" fill="black"/>
<path d="M5.99805 9.99805H7.99805V11.998H5.99805V9.99805Z" fill="black"/>
<path d="M7.99805 9.99805H9.99805V11.998H7.99805V9.99805Z" fill="black"/>
<path d="M9.99805 9.99805H11.998V11.998H9.99805V9.99805Z" fill="black"/>
<path d="M12.002 9.99805H14.002V11.998H12.002V9.99805Z" fill="black"/>
<path d="M4 11.998H6V13.998H4V11.998Z" fill="black"/>
<path d="M5.99805 11.998H7.99805V13.998H5.99805V11.998Z" fill="black"/>
<path d="M7.99805 11.998H9.99805V13.998H7.99805V11.998Z" fill="black"/>
<path d="M9.99805 11.998H11.998V13.998H9.99805V11.998Z" fill="black"/>
<path d="M12.002 11.998H14.002V13.998H12.002V11.998Z" fill="black"/>
<path d="M14.002 11.998H16.002V13.998H14.002V11.998Z" fill="black"/>
<path d="M16.002 11.998H18.002V13.998H16.002V11.998Z" fill="black"/>
<path d="M18 11.998H20V13.998H18V11.998Z" fill="black"/>
<path d="M20 11.998H22V13.998H20V11.998Z" fill="black"/>
<path d="M22 11.998H24V13.998H22V11.998Z" fill="black"/>
<path d="M24 11.998H26V13.998H24V11.998Z" fill="black"/>
<path d="M30 10H32V12H30V10Z" fill="black"/>
<path d="M28 10H30V12H28V10Z" fill="black"/>
<path d="M26 10H28V12H26V10Z" fill="black"/>
<path d="M24 10H26V12H24V10Z" fill="black"/>
<path d="M22 10H24V12H22V10Z" fill="black"/>
<path d="M20 10H22V12H20V10Z" fill="black"/>
<path d="M4 13.9971H6V15.9971H4V13.9971Z" fill="black"/>
<path d="M5.99805 13.9971H7.99805V15.9971H5.99805V13.9971Z" fill="black"/>
<path d="M7.99805 13.9971H9.99805V15.9971H7.99805V13.9971Z" fill="black"/>
<path d="M9.99805 13.9971H11.998V15.9971H9.99805V13.9971Z" fill="black"/>
<path d="M12.002 13.9971H14.002V15.9971H12.002V13.9971Z" fill="black"/>
<path d="M14.002 13.9971H16.002V15.9971H14.002V13.9971Z" fill="black"/>
<path d="M16.002 13.9971H18.002V15.9971H16.002V13.9971Z" fill="black"/>
<path d="M18 13.9971H20V15.9971H18V13.9971Z" fill="black"/>
<path d="M20 13.9971H22V15.9971H20V13.9971Z" fill="black"/>
<path d="M22 13.9971H24V15.9971H22V13.9971Z" fill="black"/>
<path d="M24 13.9971H26V15.9971H24V13.9971Z" fill="black"/>
<path d="M4 15.9961H6V17.9961H4V15.9961Z" fill="black"/>
<path d="M5.99805 15.9961H7.99805V17.9961H5.99805V15.9961Z" fill="black"/>
<path d="M7.99805 15.9961H9.99805V17.9961H7.99805V15.9961Z" fill="black"/>
<path d="M9.99805 15.9961H11.998V17.9961H9.99805V15.9961Z" fill="black"/>
<path d="M12.002 15.9961H14.002V17.9961H12.002V15.9961Z" fill="black"/>
<path d="M14.002 15.9961H16.002V17.9961H14.002V15.9961Z" fill="black"/>
<path d="M16 16H18V18H16V16Z" fill="black"/>
<path d="M16 18.0039H18V20.0039H16V18.0039Z" fill="black"/>
<path d="M16 20.0078H18V22.0078H16V20.0078Z" fill="black"/>
<path d="M16 22.0117H18V24.0117H16V22.0117Z" fill="black"/>
<path d="M16 24.0156H18V26.0156H16V24.0156Z" fill="black"/>
<path d="M18 15.9961H20V17.9961H18V15.9961Z" fill="black"/>
<path d="M18 18H20V20H18V18Z" fill="black"/>
<path d="M18 20.0039H20V22.0039H18V20.0039Z" fill="black"/>
<path d="M18 22.0078H20V24.0078H18V22.0078Z" fill="black"/>
<path d="M18 24.0117H20V26.0117H18V24.0117Z" fill="black"/>
<path d="M20 15.9961H22V17.9961H20V15.9961Z" fill="black"/>
<path d="M20 18H22V20H20V18Z" fill="black"/>
<path d="M20 20.0039H22V22.0039H20V20.0039Z" fill="black"/>
<path d="M20 22.0078H22V24.0078H20V22.0078Z" fill="black"/>
<path d="M20 24.0117H22V26.0117H20V24.0117Z" fill="black"/>
<path d="M22 15.9961H24V17.9961H22V15.9961Z" fill="black"/>
<path d="M22 18H24V20H22V18Z" fill="black"/>
<path d="M22 20.0039H24V22.0039H22V20.0039Z" fill="black"/>
<path d="M22 22.0078H24V24.0078H22V22.0078Z" fill="black"/>
<path d="M22 24.0117H24V26.0117H22V24.0117Z" fill="black"/>
<path d="M24 15.9961H26V17.9961H24V15.9961Z" fill="black"/>
<path d="M4 17.9961H6V19.9961H4V17.9961Z" fill="black"/>
<path d="M5.99805 17.9961H7.99805V19.9961H5.99805V17.9961Z" fill="black"/>
<path d="M7.99805 17.9961H9.99805V19.9961H7.99805V17.9961Z" fill="black"/>
<path d="M9.99805 17.9961H11.998V19.9961H9.99805V17.9961Z" fill="black"/>
<path d="M12.002 17.9961H14.002V19.9961H12.002V17.9961Z" fill="black"/>
<path d="M14.002 17.9961H16.002V19.9961H14.002V17.9961Z" fill="black"/>
<path d="M14.002 20H16.002V22H14.002V20Z" fill="black"/>
<path d="M14.002 22.0039H16.002V24.0039H14.002V22.0039Z" fill="black"/>
<path d="M14.002 24.0078H16.002V26.0078H14.002V24.0078Z" fill="black"/>
<path d="M24 17.9961H26V19.9961H24V17.9961Z" fill="black"/>
<path d="M25.998 17.9961H27.998V19.9961H25.998V17.9961Z" fill="black"/>
<path d="M26 16H28V18H26V16Z" fill="black"/>
<path d="M26 12H28V14H26V12Z" fill="black"/>
<path d="M28 18H30V20H28V18Z" fill="black"/>
<path d="M28 12H30V14H28V12Z" fill="black"/>
<path d="M4 19.9961H6V21.9961H4V19.9961Z" fill="black"/>
<path d="M5.99805 19.9961H7.99805V21.9961H5.99805V19.9961Z" fill="black"/>
<path d="M7.99805 19.9961H9.99805V21.9961H7.99805V19.9961Z" fill="black"/>
<path d="M9.99805 19.9961H11.998V21.9961H9.99805V19.9961Z" fill="black"/>
<path d="M12.002 19.9961H14.002V21.9961H12.002V19.9961Z" fill="black"/>
<path d="M24 19.9961H26V21.9961H24V19.9961Z" fill="black"/>
<path d="M25.998 19.9961H27.998V21.9961H25.998V19.9961Z" fill="black"/>
<path d="M28 20H30V22H28V20Z" fill="black"/>
<path d="M30 20H32V22H30V20Z" fill="black"/>
<path d="M30 12H32V14H30V12Z" fill="black"/>
<path d="M4 21.9951H6V23.9951H4V21.9951Z" fill="black"/>
<path d="M5.99805 21.9951H7.99805V23.9951H5.99805V21.9951Z" fill="black"/>
<path d="M7.99805 21.9951H9.99805V23.9951H7.99805V21.9951Z" fill="black"/>
<path d="M9.99805 21.9951H11.998V23.9951H9.99805V21.9951Z" fill="black"/>
<path d="M12.002 21.9951H14.002V23.9951H12.002V21.9951Z" fill="black"/>
<path d="M24 21.9951H26V23.9951H24V21.9951Z" fill="black"/>
<path d="M25.998 21.9951H27.998V23.9951H25.998V21.9951Z" fill="black"/>
<path d="M27.998 21.9951H29.998V23.9951H27.998V21.9951Z" fill="black"/>
<path d="M29.998 21.9951H31.998V23.9951H29.998V21.9951Z" fill="black"/>
<path d="M32.002 21.9951H34.002V23.9951H32.002V21.9951Z" fill="black"/>
<path d="M4 23.9941H6V25.9941H4V23.9941Z" fill="black"/>
<path d="M5.99805 23.9941H7.99805V25.9941H5.99805V23.9941Z" fill="black"/>
<path d="M7.99805 23.9941H9.99805V25.9941H7.99805V23.9941Z" fill="black"/>
<path d="M9.99805 23.9941H11.998V25.9941H9.99805V23.9941Z" fill="black"/>
<path d="M12.002 23.9941H14.002V25.9941H12.002V23.9941Z" fill="black"/>
<path d="M26 23.9941H28V25.9941H26V23.9941Z" fill="black"/>
<path d="M4 26.0039H6V28.0039H4V26.0039Z" fill="black"/>
<path d="M5.99805 26.0039H7.99805V28.0039H5.99805V26.0039Z" fill="black"/>
<path d="M7.99805 26.0039H9.99805V28.0039H7.99805V26.0039Z" fill="black"/>
<path d="M9.99805 26.0039H11.998V28.0039H9.99805V26.0039Z" fill="black"/>
<path d="M12.002 26.0039H14.002V28.0039H12.002V26.0039Z" fill="black"/>
<path d="M22 26.0039H24V28.0039H22V26.0039Z" fill="black"/>
<path d="M24 26.0039H26V28.0039H24V26.0039Z" fill="black"/>
<path d="M24 24H26V26H24V24Z" fill="black"/>
<path d="M2 28.0039H4V30.0039H2V28.0039Z" fill="black"/>
<path d="M4 28.0039H6V30.0039H4V28.0039Z" fill="black"/>
<path d="M5.99805 28.0039H7.99805V30.0039H5.99805V28.0039Z" fill="black"/>
<path d="M7.99805 28.0039H9.99805V30.0039H7.99805V28.0039Z" fill="black"/>
<path d="M9.99805 28.0039H11.998V30.0039H9.99805V28.0039Z" fill="black"/>
<path d="M12.002 28.0039H14.002V30.0039H12.002V28.0039Z" fill="black"/>
<path d="M14.002 28.0039H16.002V30.0039H14.002V28.0039Z" fill="black"/>
<path d="M14.002 26H16.002V28H14.002V26Z" fill="black"/>
<path d="M16 28.0039H18V30.0039H16V28.0039Z" fill="black"/>
<path d="M16 26H18V28H16V26Z" fill="black"/>
<path d="M18 28.0039H20V30.0039H18V28.0039Z" fill="black"/>
<path d="M18 26H20V28H18V26Z" fill="black"/>
<path d="M20 28.0039H22V30.0039H20V28.0039Z" fill="black"/>
<path d="M20 26H22V28H20V26Z" fill="black"/>
<path d="M22 28.0039H24V30.0039H22V28.0039Z" fill="black"/>
<path d="M24 28.0039H26V30.0039H24V28.0039Z" fill="black"/>
<path d="M12 34H14V36H12V34Z" fill="white"/>
<path d="M2 30.0029H4V32.0029H2V30.0029Z" fill="black"/>
<path d="M4 30.0029H6V32.0029H4V30.0029Z" fill="black"/>
<path d="M5.99805 30.0029H7.99805V32.0029H5.99805V30.0029Z" fill="black"/>
<path d="M7.99805 30.0029H9.99805V32.0029H7.99805V30.0029Z" fill="black"/>
<path d="M9.99805 30.0029H11.998V32.0029H9.99805V30.0029Z" fill="black"/>
<path d="M12.002 30.0029H14.002V32.0029H12.002V30.0029Z" fill="black"/>
<path d="M14.002 30.0029H16.002V32.0029H14.002V30.0029Z" fill="black"/>
<path d="M16.002 30.0029H18.002V32.0029H16.002V30.0029Z" fill="black"/>
<path d="M18 30.0029H20V32.0029H18V30.0029Z" fill="black"/>
<path d="M20 30.0029H22V32.0029H20V30.0029Z" fill="black"/>
<path d="M22 30.0029H24V32.0029H22V30.0029Z" fill="black"/>
<path d="M24 30.0029H26V32.0029H24V30.0029Z" fill="black"/>
<path d="M2 32.002H4V34.002H2V32.002Z" fill="black"/>
<path d="M4 32.002H6V34.002H4V32.002Z" fill="black"/>
<path d="M5.99805 32.002H7.99805V34.002H5.99805V32.002Z" fill="black"/>
<path d="M7.99805 32.002H9.99805V34.002H7.99805V32.002Z" fill="black"/>
<path d="M10 32H12V34H10V32Z" fill="black"/>
<path d="M12.002 32.002H14.002V34.002H12.002V32.002Z" fill="black"/>
<path d="M14.002 32.002H16.002V34.002H14.002V32.002Z" fill="black"/>
<path d="M16.002 32.002H18.002V34.002H16.002V32.002Z" fill="black"/>
<path d="M18 32.002H20V34.002H18V32.002Z" fill="black"/>
<path d="M20 32.002H22V34.002H20V32.002Z" fill="black"/>
<path d="M22 32.002H24V34.002H22V32.002Z" fill="black"/>
<path d="M24 32.002H26V34.002H24V32.002Z" fill="black"/>
<path d="M2 34.002H4V36.002H2V34.002Z" fill="black"/>
<path d="M4 34.002H6V36.002H4V34.002Z" fill="black"/>
<path d="M5.99805 34.002H7.99805V36.002H5.99805V34.002Z" fill="black"/>
<path d="M7.99805 34.002H9.99805V36.002H7.99805V34.002Z" fill="black"/>
<path d="M9.99805 34.002H11.998V36.002H9.99805V34.002Z" fill="black"/>
<path d="M12.002 34.002H14.002V36.002H12.002V34.002Z" fill="black"/>
<path d="M14.002 34.002H16.002V36.002H14.002V34.002Z" fill="black"/>
<path d="M16.002 34.002H18.002V36.002H16.002V34.002Z" fill="black"/>
<path d="M18 34.002H20V36.002H18V34.002Z" fill="black"/>
<path d="M20 34.002H22V36.002H20V34.002Z" fill="black"/>
<path d="M22 34.002H24V36.002H22V34.002Z" fill="black"/>
<path d="M24 34.002H26V36.002H24V34.002Z" fill="black"/>
<path d="M2 36.002H4V38.002H2V36.002Z" fill="black"/>
<path d="M4 36.002H6V38.002H4V36.002Z" fill="black"/>
<path d="M5.99805 36.002H7.99805V38.002H5.99805V36.002Z" fill="black"/>
<path d="M7.99805 36.002H9.99805V38.002H7.99805V36.002Z" fill="black"/>
<path d="M9.99805 36.002H11.998V38.002H9.99805V36.002Z" fill="black"/>
<path d="M12.002 36.002H14.002V38.002H12.002V36.002Z" fill="black"/>
<path d="M14.002 36.002H16.002V38.002H14.002V36.002Z" fill="black"/>
<path d="M16.002 36.002H18.002V38.002H16.002V36.002Z" fill="black"/>
<path d="M18 36.002H20V38.002H18V36.002Z" fill="black"/>
<path d="M20 36.002H22V38.002H20V36.002Z" fill="black"/>
<path d="M22 36.002H24V38.002H22V36.002Z" fill="black"/>
<path d="M24 36.002H26V38.002H24V36.002Z" fill="black"/>
<path d="M2 38.001H4V40.001H2V38.001Z" fill="black"/>
<path d="M4 38.001H6V40.001H4V38.001Z" fill="black"/>
<path d="M5.99805 38.001H7.99805V40.001H5.99805V38.001Z" fill="black"/>
<path d="M7.99805 38.001H9.99805V40.001H7.99805V38.001Z" fill="black"/>
<path d="M9.99805 38.001H11.998V40.001H9.99805V38.001Z" fill="black"/>
<path d="M12.002 38.001H14.002V40.001H12.002V38.001Z" fill="black"/>
<path d="M14.002 38.001H16.002V40.001H14.002V38.001Z" fill="black"/>
<path d="M16.002 38.001H18.002V40.001H16.002V38.001Z" fill="black"/>
<path d="M18 38.001H20V40.001H18V38.001Z" fill="black"/>
<path d="M20 38.001H22V40.001H20V38.001Z" fill="black"/>
<path d="M22 38.001H24V40.001H22V38.001Z" fill="black"/>
<path d="M24 38.001H26V40.001H24V38.001Z" fill="black"/>
<path d="M2 40H4V42H2V40Z" fill="black"/>
<path d="M4 40H6V42H4V40Z" fill="black"/>
<path d="M5.99805 40H7.99805V42H5.99805V40Z" fill="black"/>
<path d="M7.99805 40H9.99805V42H7.99805V40Z" fill="black"/>
<path d="M9.99805 40H11.998V42H9.99805V40Z" fill="black"/>
<path d="M12.002 40H14.002V42H12.002V40Z" fill="black"/>
<path d="M14.002 40H16.002V42H14.002V40Z" fill="black"/>
<path d="M16.002 40H18.002V42H16.002V40Z" fill="black"/>
<path d="M30 24H32V26H30V24Z" fill="black"/>
<path d="M28 23.9941H30V25.9941H28V23.9941Z" fill="black"/>
<path d="M32 23.9941H34V25.9941H32V23.9941Z" fill="black"/>
<path d="M34.0039 23.9941H36.0039V25.9941H34.0039V23.9941Z" fill="black"/>
<path d="M36.0039 23.9941H38.0039V25.9941H36.0039V23.9941Z" fill="black"/>
<path d="M40 24H42V26H40V24Z" fill="black"/>
<path d="M40 26H42V28H40V26Z" fill="black"/>
<path d="M26 26.0039H28V28.0039H26V26.0039Z" fill="black"/>
<path d="M28 26.0039H30V28.0039H28V26.0039Z" fill="black"/>
<path d="M30 26.0039H32V28.0039H30V26.0039Z" fill="white"/>
<path d="M32 26.0039H34V28.0039H32V26.0039Z" fill="white"/>
<path d="M34.0039 26.0039H36.0039V28.0039H34.0039V26.0039Z" fill="white"/>
<path d="M36.0039 26.0039H38.0039V28.0039H36.0039V26.0039Z" fill="white"/>
<path d="M38.002 26.0039H40.002V28.0039H38.002V26.0039Z" fill="white"/>
<path d="M26 28.0039H28V30.0039H26V28.0039Z" fill="black"/>
<path d="M28 28.0039H30V30.0039H28V28.0039Z" fill="white"/>
<path d="M30 28.0039H32V30.0039H30V28.0039Z" fill="white"/>
<path d="M31.9883 27.9932H33.9883V29.9932H31.9883V27.9932Z" fill="white"/>
<path d="M34 28H36V30H34V28Z" fill="black"/>
<path d="M36 30H38V32H36V30Z" fill="black"/>
<path d="M38 30H40V32H38V30Z" fill="white"/>
<path d="M26 32H28V34H26V32Z" fill="black"/>
<path d="M26 30H28V32H26V30Z" fill="black"/>
<path d="M28 34H30V36H28V34Z" fill="white"/>
<path d="M30 36H32V38H30V36Z" fill="white"/>
<path d="M30 34H32V36H30V34Z" fill="black"/>
<path d="M32 36H34V38H32V36Z" fill="black"/>
<path d="M32 38H34V40H32V38Z" fill="white"/>
<path d="M34 38H36V40H34V38Z" fill="white"/>
<path d="M36 38H38V40H36V38Z" fill="white"/>
<path d="M38 38H40V40H38V38Z" fill="white"/>
<path d="M38 28H40V30H38V28Z" fill="white"/>
<path d="M38 24H40V26H38V24Z" fill="black"/>
<path d="M36 28H38V30H36V28Z" fill="black"/>
<path d="M40.002 28.0039H42.002V30.0039H40.002V28.0039Z" fill="white"/>
<path d="M42 26H44V28H42V26Z" fill="black"/>
<path d="M28 30.0029H30V32.0029H28V30.0029Z" fill="white"/>
<path d="M30 30.0029H32V32.0029H30V30.0029Z" fill="white"/>
<path d="M32 30.0029H34V32.0029H32V30.0029Z" fill="white"/>
<path d="M33.9883 29.9922H35.9883V31.9922H33.9883V29.9922Z" fill="white"/>
<path d="M40.002 30.0029H42.002V32.0029H40.002V30.0029Z" fill="white"/>
<path d="M42 30.0029H44V32.0029H42V30.0029Z" fill="black"/>
<path d="M42 28H44V30H42V28Z" fill="black"/>
<path d="M28 40H30V42H28V40Z" fill="black"/>
<path d="M28 32.002H30V34.002H28V32.002Z" fill="white"/>
<path d="M30 32.002H32V34.002H30V32.002Z" fill="black"/>
<path d="M32 32.002H34V34.002H32V32.002Z" fill="white"/>
<path d="M34.0039 32.002H36.0039V34.002H34.0039V32.002Z" fill="white"/>
<path d="M36.0039 32.002H38.0039V34.002H36.0039V32.002Z" fill="white"/>
<path d="M38.002 32.002H40.002V34.002H38.002V32.002Z" fill="white"/>
<path d="M40.002 32.002H42.002V34.002H40.002V32.002Z" fill="white"/>
<path d="M42 32.002H44V34.002H42V32.002Z" fill="black"/>
<path d="M26 34H28V36H26V34Z" fill="black"/>
<path d="M28 36H30V38H28V36Z" fill="white"/>
<path d="M30 36H32V38H30V36Z" fill="white"/>
<path d="M34.0039 34.002H36.0039V36.002H34.0039V34.002Z" fill="white"/>
<path d="M32 34.002H34V36.002H32V34.002Z" fill="black"/>
<path d="M36.0039 34.002H38.0039V36.002H36.0039V34.002Z" fill="white"/>
<path d="M38.002 34.002H40.002V36.002H38.002V34.002Z" fill="white"/>
<path d="M40.002 34.002H42.002V36.002H40.002V34.002Z" fill="white"/>
<path d="M42 34.002H44V36.002H42V34.002Z" fill="black"/>
<path d="M26 36.002H28V38.002H26V36.002Z" fill="black"/>
<path d="M30 38H32V40H30V38Z" fill="white"/>
<path d="M34.0039 36.002H36.0039V38.002H34.0039V36.002Z" fill="black"/>
<path d="M36 36H38V38H36V36Z" fill="black"/>
<path d="M38 36H40V38H38V36Z" fill="white"/>
<path d="M40.002 36.002H42.002V38.002H40.002V36.002Z" fill="white"/>
<path d="M42 36.002H44V38.002H42V36.002Z" fill="black"/>
<path d="M26 38.001H28V40.001H26V38.001Z" fill="black"/>
<path d="M28 38.001H30V40.001H28V38.001Z" fill="black"/>
<path d="M40.002 38.001H42.002V40.001H40.002V38.001Z" fill="white"/>
<path d="M42 38.001H44V40.001H42V38.001Z" fill="black"/>
<path d="M40 38.001H42V40.001H40V38.001Z" fill="black"/>
<path d="M30 40H32V42H30V40Z" fill="black"/>
<path d="M32 40H34V42H32V40Z" fill="black"/>
<path d="M34.0039 40H36.0039V42H34.0039V40Z" fill="black"/>
<path d="M36.0039 40H38.0039V42H36.0039V40Z" fill="black"/>
<path d="M38 40H40V42H38V40Z" fill="black"/>
<path d="M40.002 40H42.002V42H40.002V40Z" fill="black"/>
<path d="M2 42H4V44H2V42Z" fill="black"/>
<path d="M4 42H6V44H4V42Z" fill="black"/>
<path d="M5.99805 42H7.99805V44H5.99805V42Z" fill="black"/>
<path d="M7.99805 42H9.99805V44H7.99805V42Z" fill="black"/>
<path d="M9.99805 42H11.998V44H9.99805V42Z" fill="black"/>
<path d="M12.002 42H14.002V44H12.002V42Z" fill="black"/>
<path d="M14.002 42H16.002V44H14.002V42Z" fill="black"/>
<path d="M16.002 42H18.002V44H16.002V42Z" fill="black"/>
<path d="M18 42H20V44H18V42Z" fill="black"/>
<path d="M18 40H20V42H18V40Z" fill="black"/>
<path d="M22 6H24V8H22V6Z" fill="black"/>
<path d="M23.998 6H25.998V8H23.998V6Z" fill="black"/>
<path d="M25.998 6H27.998V8H25.998V6Z" fill="black"/>
<path d="M27.998 6H29.998V8H27.998V6Z" fill="black"/>
<path d="M29.998 6H31.998V8H29.998V6Z" fill="black"/>
<path d="M32.002 6H34.002V8H32.002V6Z" fill="black"/>
<path d="M34.002 6H36.002V8H34.002V6Z" fill="black"/>
<path d="M36 6H38V8H36V6Z" fill="black"/>
<path d="M20 7.99902H22V9.99902H20V7.99902Z" fill="black"/>
<path d="M22 7.99902H24V9.99902H22V7.99902Z" fill="black"/>
<path d="M23.998 7.99902H25.998V9.99902H23.998V7.99902Z" fill="black"/>
<path d="M25.998 7.99902H27.998V9.99902H25.998V7.99902Z" fill="black"/>
<path d="M27.998 7.99902H29.998V9.99902H27.998V7.99902Z" fill="black"/>
<path d="M29.998 7.99902H31.998V9.99902H29.998V7.99902Z" fill="black"/>
<path d="M32.002 7.99902H34.002V9.99902H32.002V7.99902Z" fill="black"/>
<path d="M34.002 7.99902H36.002V9.99902H34.002V7.99902Z" fill="black"/>
<path d="M20 6H22V8H20V6Z" fill="black"/>
<path d="M20 9.99902H22V11.999H20V9.99902Z" fill="black"/>
<path d="M22 9.99902H24V11.999H22V9.99902Z" fill="black"/>
<path d="M23.998 9.99902H25.998V11.999H23.998V9.99902Z" fill="black"/>
<path d="M25.998 9.99902H27.998V11.999H25.998V9.99902Z" fill="black"/>
<path d="M27.998 9.99902H29.998V11.999H27.998V9.99902Z" fill="black"/>
<path d="M29.998 9.99902H31.998V11.999H29.998V9.99902Z" fill="black"/>
<path d="M36 8H38V10H36V8Z" fill="black"/>
<path d="M12.0039 2H14.0039V4H12.0039V2Z" fill="black"/>
<path d="M12.0039 0H14.0039V2H12.0039V0Z" fill="black"/>
<path d="M14.0039 2H16.0039V4H14.0039V2Z" fill="black"/>
<path d="M14.002 0H16.002V2H14.002V0Z" fill="black"/>
<path d="M12.0039 4H14.0039V6H12.0039V4Z" fill="black"/>
<path d="M14.0039 4H16.0039V6H14.0039V4Z" fill="black"/>
<path d="M8 5.99902H10V7.99902H8V5.99902Z" fill="black"/>
<path d="M8 4H10V6H8V4Z" fill="black"/>
<path d="M10 5.99902H12V7.99902H10V5.99902Z" fill="black"/>
<path d="M10 4H12V6H10V4Z" fill="black"/>
<path d="M12.0039 5.99902H14.0039V7.99902H12.0039V5.99902Z" fill="black"/>
<path d="M14.0039 5.99902H16.0039V7.99902H14.0039V5.99902Z" fill="black"/>
<path d="M8 7.99805H10V9.99805H8V7.99805Z" fill="black"/>
<path d="M10 7.99805H12V9.99805H10V7.99805Z" fill="black"/>
<path d="M12.0039 7.99805H14.0039V9.99805H12.0039V7.99805Z" fill="black"/>
<path d="M14.0039 7.99805H16.0039V9.99805H14.0039V7.99805Z" fill="black"/>
<path d="M4 44V10H12V40H24V44H4Z" fill="black"/>
<path d="M10 12H6V42H10V12ZM24 40V44H4V10H12V40H24Z" fill="black"/>
<path d="M18 21.999H20V23.999H18V21.999Z" fill="black"/>
<path d="M16 18.0039H18V20.0039H16V18.0039Z" fill="white"/>
<path d="M16 20.0039H18V22.0039H16V20.0039Z" fill="white"/>
<path d="M16 22.0039H18V24.0039H16V22.0039Z" fill="white"/>
<path d="M16 24.0039H18V26.0039H16V24.0039Z" fill="white"/>
<path d="M14 20.0039H16V22.0039H14V20.0039Z" fill="white"/>
<path d="M14 22.0039H16V24.0039H14V22.0039Z" fill="white"/>
<path d="M14 24.0039H16V26.0039H14V24.0039Z" fill="white"/>
<path d="M16 26.0039H18V28.0039H16V26.0039Z" fill="white"/>
<path d="M18 26.0039H20V28.0039H18V26.0039Z" fill="white"/>
<path d="M20 26.0039H22V28.0039H20V26.0039Z" fill="white"/>
<path d="M18 18.0039H20V20.0039H18V18.0039Z" fill="white"/>
<path d="M18 20.0039H20V22.0039H18V20.0039Z" fill="white"/>
<path d="M20 18.0039H22V20.0039H20V18.0039Z" fill="white"/>
<path d="M20 20.0039H22V22.0039H20V20.0039Z" fill="white"/>
<path d="M22 20.0039H24V22.0039H22V20.0039Z" fill="white"/>
<path d="M22 22.0039H24V24.0039H22V22.0039Z" fill="white"/>
<path d="M22 24.0039H24V26.0039H22V24.0039Z" fill="white"/>
<path d="M20 21.999H22V23.999H20V21.999Z" fill="black"/>
<path d="M18 23.998H20V25.998H18V23.998Z" fill="black"/>
<path d="M20 23.998H22V25.998H20V23.998Z" fill="black"/>
</svg>
