<svg width="44" height="44" viewBox="0 0 44 44" fill="none" xmlns="http://www.w3.org/2000/svg">
<path d="M14 10H16V12H14V10Z" fill="black"/>
<path d="M5.99805 7.99792H7.99805V9.99792H5.99805V7.99792Z" fill="black"/>
<path d="M7.99805 7.99792H9.99805V9.99792H7.99805V7.99792Z" fill="black"/>
<path d="M9.99707 7.99792H11.9971V9.99792H9.99707V7.99792Z" fill="black"/>
<path d="M12.0029 7.99792H14.0029V9.99792H12.0029V7.99792Z" fill="black"/>
<path d="M3.99902 9.99805H5.99902V11.998H3.99902V9.99805Z" fill="black"/>
<path d="M5.99805 9.99805H7.99805V11.998H5.99805V9.99805Z" fill="black"/>
<path d="M7.99805 9.99805H9.99805V11.998H7.99805V9.99805Z" fill="black"/>
<path d="M9.99707 9.99805H11.9971V11.998H9.99707V9.99805Z" fill="black"/>
<path d="M12.0029 9.99805H14.0029V11.998H12.0029V9.99805Z" fill="black"/>
<path d="M3.99902 11.998H5.99902V13.998H3.99902V11.998Z" fill="black"/>
<path d="M5.99805 11.998H7.99805V13.998H5.99805V11.998Z" fill="black"/>
<path d="M7.99805 11.998H9.99805V13.998H7.99805V11.998Z" fill="black"/>
<path d="M9.99707 11.998H11.9971V13.998H9.99707V11.998Z" fill="black"/>
<path d="M12.0029 11.998H14.0029V13.998H12.0029V11.998Z" fill="black"/>
<path d="M14.002 11.998H16.002V13.998H14.002V11.998Z" fill="black"/>
<path d="M16.002 11.998H18.002V13.998H16.002V11.998Z" fill="black"/>
<path d="M18.001 11.998H20.001V13.998H18.001V11.998Z" fill="black"/>
<path d="M20.001 11.998H22.001V13.998H20.001V11.998Z" fill="black"/>
<path d="M22 11.998H24V13.998H22V11.998Z" fill="black"/>
<path d="M24 11.998H26V13.998H24V11.998Z" fill="black"/>
<path d="M30.001 10H32.001V12H30.001V10Z" fill="black"/>
<path d="M28.001 10H30.001V12H28.001V10Z" fill="black"/>
<path d="M26 10H28V12H26V10Z" fill="black"/>
<path d="M24 10H26V12H24V10Z" fill="black"/>
<path d="M22 10H24V12H22V10Z" fill="black"/>
<path d="M20.001 10H22.001V12H20.001V10Z" fill="black"/>
<path d="M18.001 10H20.001V12H18.001V10Z" fill="black"/>
<path d="M3.99902 13.9972H5.99902V15.9972H3.99902V13.9972Z" fill="black"/>
<path d="M5.99805 13.9972H7.99805V15.9972H5.99805V13.9972Z" fill="black"/>
<path d="M7.99805 13.9972H9.99805V15.9972H7.99805V13.9972Z" fill="black"/>
<path d="M9.99707 13.9972H11.9971V15.9972H9.99707V13.9972Z" fill="black"/>
<path d="M12.0029 13.9972H14.0029V15.9972H12.0029V13.9972Z" fill="black"/>
<path d="M14.002 13.9972H16.002V15.9972H14.002V13.9972Z" fill="black"/>
<path d="M16.002 13.9972H18.002V15.9972H16.002V13.9972Z" fill="black"/>
<path d="M18.001 13.9972H20.001V15.9972H18.001V13.9972Z" fill="black"/>
<path d="M20.001 13.9972H22.001V15.9972H20.001V13.9972Z" fill="black"/>
<path d="M22 13.9972H24V15.9972H22V13.9972Z" fill="black"/>
<path d="M24 13.9972H26V15.9972H24V13.9972Z" fill="black"/>
<path d="M3.99902 15.996H5.99902V17.996H3.99902V15.996Z" fill="black"/>
<path d="M5.99805 15.996H7.99805V17.996H5.99805V15.996Z" fill="black"/>
<path d="M7.99805 15.996H9.99805V17.996H7.99805V15.996Z" fill="black"/>
<path d="M9.99707 15.996H11.9971V17.996H9.99707V15.996Z" fill="black"/>
<path d="M12.0029 15.996H14.0029V17.996H12.0029V15.996Z" fill="black"/>
<path d="M14.002 15.996H16.002V17.996H14.002V15.996Z" fill="black"/>
<path d="M16 16.0001H18V18.0001H16V16.0001Z" fill="black"/>
<path d="M18.001 15.996H20.001V17.996H18.001V15.996Z" fill="black"/>
<path d="M20.001 15.996H22.001V17.996H20.001V15.996Z" fill="black"/>
<path d="M22 15.996H24V17.996H22V15.996Z" fill="black"/>
<path d="M24 15.996H26V17.996H24V15.996Z" fill="black"/>
<path d="M3.99902 17.996H5.99902V19.996H3.99902V17.996Z" fill="black"/>
<path d="M5.99805 17.996H7.99805V19.996H5.99805V17.996Z" fill="black"/>
<path d="M7.99805 17.996H9.99805V19.996H7.99805V17.996Z" fill="black"/>
<path d="M9.99707 17.996H11.9971V19.996H9.99707V17.996Z" fill="black"/>
<path d="M12.0029 17.996H14.0029V19.996H12.0029V17.996Z" fill="black"/>
<path d="M14.002 17.996H16.002V19.996H14.002V17.996Z" fill="black"/>
<path d="M22 17.996H24V19.996H22V17.996Z" fill="black"/>
<path d="M24 17.996H26V19.996H24V17.996Z" fill="black"/>
<path d="M26 17.996H28V19.996H26V17.996Z" fill="black"/>
<path d="M26 16.0001H28V18.0001H26V16.0001Z" fill="black"/>
<path d="M26 12H28V14H26V12Z" fill="black"/>
<path d="M28.001 17.9999H30.001V19.9999H28.001V17.9999Z" fill="black"/>
<path d="M28.001 12H30.001V14H28.001V12Z" fill="black"/>
<path d="M3.99902 19.9961H5.99902V21.9961H3.99902V19.9961Z" fill="black"/>
<path d="M5.99805 19.9961H7.99805V21.9961H5.99805V19.9961Z" fill="black"/>
<path d="M7.99805 19.9961H9.99805V21.9961H7.99805V19.9961Z" fill="black"/>
<path d="M9.99707 19.9961H11.9971V21.9961H9.99707V19.9961Z" fill="black"/>
<path d="M12.0029 19.9961H14.0029V21.9961H12.0029V19.9961Z" fill="black"/>
<path d="M24 19.9961H26V21.9961H24V19.9961Z" fill="black"/>
<path d="M26 19.9961H28V21.9961H26V19.9961Z" fill="black"/>
<path d="M28.001 20H30.001V22H28.001V20Z" fill="black"/>
<path d="M30.001 20H32.001V22H30.001V20Z" fill="black"/>
<path d="M30.001 12H32.001V14H30.001V12Z" fill="black"/>
<path d="M3.99902 21.9951H5.99902V23.9951H3.99902V21.9951Z" fill="black"/>
<path d="M5.99805 21.9951H7.99805V23.9951H5.99805V21.9951Z" fill="black"/>
<path d="M7.99805 21.9951H9.99805V23.9951H7.99805V21.9951Z" fill="black"/>
<path d="M9.99707 21.9951H11.9971V23.9951H9.99707V21.9951Z" fill="black"/>
<path d="M12.0029 21.9951H14.0029V23.9951H12.0029V21.9951Z" fill="black"/>
<path d="M18.001 21.9951H20.001V23.9951H18.001V21.9951Z" fill="black"/>
<path d="M16 17.9999H18V19.9999H16V17.9999Z" fill="white"/>
<path d="M16 20H18V22H16V20Z" fill="white"/>
<path d="M16 22H18V24H16V22Z" fill="white"/>
<path d="M16 24H18V26H16V24Z" fill="white"/>
<path d="M14 20H16V22H14V20Z" fill="white"/>
<path d="M14 22H16V24H14V22Z" fill="white"/>
<path d="M14 24H16V26H14V24Z" fill="white"/>
<path d="M16 26.0001H18V28.0001H16V26.0001Z" fill="white"/>
<path d="M18.001 26.0001H20.001V28.0001H18.001V26.0001Z" fill="white"/>
<path d="M20.001 26.0001H22.001V28.0001H20.001V26.0001Z" fill="white"/>
<path d="M18.001 17.9999H20.001V19.9999H18.001V17.9999Z" fill="white"/>
<path d="M18.001 20H20.001V22H18.001V20Z" fill="white"/>
<path d="M20.001 17.9999H22.001V19.9999H20.001V17.9999Z" fill="white"/>
<path d="M20.001 20H22.001V22H20.001V20Z" fill="white"/>
<path d="M22 20H24V22H22V20Z" fill="white"/>
<path d="M22 22H24V24H22V22Z" fill="white"/>
<path d="M22 24H24V26H22V24Z" fill="white"/>
<path d="M20.001 21.9951H22.001V23.9951H20.001V21.9951Z" fill="black"/>
<path d="M24 21.9951H26V23.9951H24V21.9951Z" fill="black"/>
<path d="M26 21.9951H28V23.9951H26V21.9951Z" fill="black"/>
<path d="M27.999 21.9951H29.999V23.9951H27.999V21.9951Z" fill="black"/>
<path d="M29.999 21.9951H31.999V23.9951H29.999V21.9951Z" fill="black"/>
<path d="M32.002 21.9951H34.002V23.9951H32.002V21.9951Z" fill="black"/>
<path d="M34.002 21.9951H36.002V23.9951H34.002V21.9951Z" fill="black"/>
<path d="M3.99902 23.9941H5.99902V25.9941H3.99902V23.9941Z" fill="black"/>
<path d="M5.99805 23.9941H7.99805V25.9941H5.99805V23.9941Z" fill="black"/>
<path d="M7.99805 23.9941H9.99805V25.9941H7.99805V23.9941Z" fill="black"/>
<path d="M9.99707 23.9941H11.9971V25.9941H9.99707V23.9941Z" fill="black"/>
<path d="M12.0029 23.9941H14.0029V25.9941H12.0029V23.9941Z" fill="black"/>
<path d="M18.001 23.9941H20.001V25.9941H18.001V23.9941Z" fill="black"/>
<path d="M20.001 23.9941H22.001V25.9941H20.001V23.9941Z" fill="black"/>
<path d="M24 23.9941H26V25.9941H24V23.9941Z" fill="black"/>
<path d="M26 23.9941H28V25.9941H26V23.9941Z" fill="black"/>
<path d="M27.999 23.9941H29.999V25.9941H27.999V23.9941Z" fill="white"/>
<path d="M29.999 23.9941H31.999V25.9941H29.999V23.9941Z" fill="white"/>
<path d="M32.002 23.9941H34.002V25.9941H32.002V23.9941Z" fill="white"/>
<path d="M34.002 23.9941H36.002V25.9941H34.002V23.9941Z" fill="white"/>
<path d="M34.002 23.9941H36.002V25.9941H34.002V23.9941Z" fill="white"/>
<path d="M35.9971 23.9995H37.9971V25.9995H35.9971V23.9995Z" fill="white"/>
<path d="M38.001 24H40.001V26H38.001V24Z" fill="black"/>
<path d="M3.99902 26.004H5.99902V28.004H3.99902V26.004Z" fill="black"/>
<path d="M5.99805 26.004H7.99805V28.004H5.99805V26.004Z" fill="black"/>
<path d="M7.99805 26.004H9.99805V28.004H7.99805V26.004Z" fill="black"/>
<path d="M9.99707 26.004H11.9971V28.004H9.99707V26.004Z" fill="black"/>
<path d="M12.0029 26.004H14.0029V28.004H12.0029V26.004Z" fill="black"/>
<path d="M14.002 26.004H16.002V28.004H14.002V26.004Z" fill="black"/>
<path d="M22 26.004H24V28.004H22V26.004Z" fill="black"/>
<path d="M24 26.004H26V28.004H24V26.004Z" fill="black"/>
<path d="M26 26.004H28V28.004H26V26.004Z" fill="white"/>
<path d="M27.999 26.004H29.999V28.004H27.999V26.004Z" fill="white"/>
<path d="M29.999 26.004H31.999V28.004H29.999V26.004Z" fill="white"/>
<path d="M32.002 26.004H34.002V28.004H32.002V26.004Z" fill="white"/>
<path d="M34.002 26.004H36.002V28.004H34.002V26.004Z" fill="white"/>
<path d="M36.001 26.004H38.001V28.004H36.001V26.004Z" fill="white"/>
<path d="M37.9971 25.9991H39.9971V27.9991H37.9971V25.9991Z" fill="white"/>
<path d="M1.99902 28.004H3.99902V30.004H1.99902V28.004Z" fill="black"/>
<path d="M2.00098 26.0001H4.00098V28.0001H2.00098V26.0001Z" fill="black"/>
<path d="M2.00098 23.9961H4.00098V25.9961H2.00098V23.9961Z" fill="black"/>
<path d="M2.00098 21.9932H4.00098V23.9932H2.00098V21.9932Z" fill="black"/>
<path d="M2.00098 20H4.00098V22H2.00098V20Z" fill="black"/>
<path d="M3.99902 28.004H5.99902V30.004H3.99902V28.004Z" fill="black"/>
<path d="M5.99805 28.004H7.99805V30.004H5.99805V28.004Z" fill="black"/>
<path d="M7.99805 28.004H9.99805V30.004H7.99805V28.004Z" fill="black"/>
<path d="M9.99707 28.004H11.9971V30.004H9.99707V28.004Z" fill="black"/>
<path d="M12.0029 28.004H14.0029V30.004H12.0029V28.004Z" fill="black"/>
<path d="M14.002 28.004H16.002V30.004H14.002V28.004Z" fill="black"/>
<path d="M16.002 28.004H18.002V30.004H16.002V28.004Z" fill="black"/>
<path d="M18.001 28.004H20.001V30.004H18.001V28.004Z" fill="black"/>
<path d="M20.001 28.004H22.001V30.004H20.001V28.004Z" fill="black"/>
<path d="M22 28.004H24V30.004H22V28.004Z" fill="black"/>
<path d="M24 28.004H26V30.004H24V28.004Z" fill="white"/>
<path d="M26 28.004H28V30.004H26V28.004Z" fill="white"/>
<path d="M27.999 28.004H29.999V30.004H27.999V28.004Z" fill="white"/>
<path d="M29.9873 27.9933H31.9873V29.9933H29.9873V27.9933Z" fill="white"/>
<path d="M32 27.9999H34V29.9999H32V27.9999Z" fill="black"/>
<path d="M34 29.9999H36V31.9999H34V29.9999Z" fill="black"/>
<path d="M36.001 29.9999H38.001V31.9999H36.001V29.9999Z" fill="black"/>
<path d="M24 32H26V34H24V32Z" fill="white"/>
<path d="M24 29.9999H26V31.9999H24V29.9999Z" fill="white"/>
<path d="M26 34H28V36H26V34Z" fill="white"/>
<path d="M28.001 36H30.001V38H28.001V36Z" fill="white"/>
<path d="M28.001 34H30.001V36H28.001V34Z" fill="black"/>
<path d="M30.001 36H32.001V38H30.001V36Z" fill="black"/>
<path d="M30.001 38.0001H32.001V40.0001H30.001V38.0001Z" fill="white"/>
<path d="M32 38.0001H34V40.0001H32V38.0001Z" fill="white"/>
<path d="M34 38.0001H36V40.0001H34V38.0001Z" fill="white"/>
<path d="M36.001 38.0001H38.001V40.0001H36.001V38.0001Z" fill="white"/>
<path d="M35.9971 39.996H37.9971V41.996H35.9971V39.996Z" fill="white"/>
<path d="M12.001 34H14.001V36H12.001V34Z" fill="white"/>
<path d="M36.001 27.9999H38.001V29.9999H36.001V27.9999Z" fill="white"/>
<path d="M36.001 22.0059H38.001V24.0059H36.001V22.0059Z" fill="black"/>
<path d="M34 27.9999H36V29.9999H34V27.9999Z" fill="black"/>
<path d="M38.001 28.004H40.001V30.004H38.001V28.004Z" fill="white"/>
<path d="M39.9961 27.9987H41.9961V29.9987H39.9961V27.9987Z" fill="white"/>
<path d="M40 26.0001H42V28.0001H40V26.0001Z" fill="black"/>
<path d="M42 27.9999H44V29.9999H42V27.9999Z" fill="black"/>
<path d="M1.99902 30.0028H3.99902V32.0028H1.99902V30.0028Z" fill="black"/>
<path d="M3.99902 30.0028H5.99902V32.0028H3.99902V30.0028Z" fill="black"/>
<path d="M5.99805 30.0028H7.99805V32.0028H5.99805V30.0028Z" fill="black"/>
<path d="M7.99805 30.0028H9.99805V32.0028H7.99805V30.0028Z" fill="black"/>
<path d="M9.99707 30.0028H11.9971V32.0028H9.99707V30.0028Z" fill="black"/>
<path d="M12.0029 30.0028H14.0029V32.0028H12.0029V30.0028Z" fill="black"/>
<path d="M14.002 30.0028H16.002V32.0028H14.002V30.0028Z" fill="black"/>
<path d="M16.002 30.0028H18.002V32.0028H16.002V30.0028Z" fill="black"/>
<path d="M18.001 30.0028H20.001V32.0028H18.001V30.0028Z" fill="black"/>
<path d="M20.001 30.0028H22.001V32.0028H20.001V30.0028Z" fill="black"/>
<path d="M22 30.0028H24V32.0028H22V30.0028Z" fill="black"/>
<path d="M26 30.0028H28V32.0028H26V30.0028Z" fill="black"/>
<path d="M27.999 30.0028H29.999V32.0028H27.999V30.0028Z" fill="white"/>
<path d="M29.999 30.0028H31.999V32.0028H29.999V30.0028Z" fill="white"/>
<path d="M31.9863 29.9921H33.9863V31.9921H31.9863V29.9921Z" fill="white"/>
<path d="M38.001 30.0028H40.001V32.0028H38.001V30.0028Z" fill="white"/>
<path d="M40 30.0028H42V32.0028H40V30.0028Z" fill="white"/>
<path d="M42 29.9999H44V31.9999H42V29.9999Z" fill="black"/>
<path d="M42 32H44V34H42V32Z" fill="black"/>
<path d="M42 34H44V36H42V34Z" fill="black"/>
<path d="M42 36H44V38H42V36Z" fill="black"/>
<path d="M28.001 42H30.001V44H28.001V42Z" fill="black"/>
<path d="M30.001 42H32.001V44H30.001V42Z" fill="black"/>
<path d="M32 42H34V44H32V42Z" fill="black"/>
<path d="M34 42H36V44H34V42Z" fill="black"/>
<path d="M36.001 42H38.001V44H36.001V42Z" fill="black"/>
<path d="M1.99902 32.002H3.99902V34.002H1.99902V32.002Z" fill="black"/>
<path d="M3.99902 32.002H5.99902V34.002H3.99902V32.002Z" fill="black"/>
<path d="M5.99805 32.002H7.99805V34.002H5.99805V32.002Z" fill="black"/>
<path d="M7.99805 32.002H9.99805V34.002H7.99805V32.002Z" fill="black"/>
<path d="M9.99707 32.002H11.9971V34.002H9.99707V32.002Z" fill="black"/>
<path d="M12.0029 32.002H14.0029V34.002H12.0029V32.002Z" fill="black"/>
<path d="M14.002 32.002H16.002V34.002H14.002V32.002Z" fill="black"/>
<path d="M16.002 32.002H18.002V34.002H16.002V32.002Z" fill="black"/>
<path d="M18.001 32.002H20.001V34.002H18.001V32.002Z" fill="black"/>
<path d="M20.001 32.002H22.001V34.002H20.001V32.002Z" fill="black"/>
<path d="M22 32.002H24V34.002H22V32.002Z" fill="black"/>
<path d="M26 32.002H28V34.002H26V32.002Z" fill="black"/>
<path d="M27.999 32.002H29.999V34.002H27.999V32.002Z" fill="black"/>
<path d="M29.999 32.002H31.999V34.002H29.999V32.002Z" fill="white"/>
<path d="M32.002 32.002H34.002V34.002H32.002V32.002Z" fill="white"/>
<path d="M34.002 32.002H36.002V34.002H34.002V32.002Z" fill="white"/>
<path d="M36.001 32.002H38.001V34.002H36.001V32.002Z" fill="white"/>
<path d="M38.001 32.002H40.001V34.002H38.001V32.002Z" fill="white"/>
<path d="M40 32.002H42V34.002H40V32.002Z" fill="white"/>
<path d="M0 34.002H2V36.002H0V34.002Z" fill="black"/>
<path d="M0 32H2V34H0V32Z" fill="black"/>
<path d="M0 29.9979H2V31.9979H0V29.9979Z" fill="black"/>
<path d="M1.99902 34.002H3.99902V36.002H1.99902V34.002Z" fill="black"/>
<path d="M3.99902 34.002H5.99902V36.002H3.99902V34.002Z" fill="black"/>
<path d="M5.99805 34.002H7.99805V36.002H5.99805V34.002Z" fill="black"/>
<path d="M7.99805 34.002H9.99805V36.002H7.99805V34.002Z" fill="black"/>
<path d="M9.99707 34.002H11.9971V36.002H9.99707V34.002Z" fill="black"/>
<path d="M12.0029 34.002H14.0029V36.002H12.0029V34.002Z" fill="black"/>
<path d="M14.002 34.002H16.002V36.002H14.002V34.002Z" fill="black"/>
<path d="M16.002 34.002H18.002V36.002H16.002V34.002Z" fill="black"/>
<path d="M18.001 34.002H20.001V36.002H18.001V34.002Z" fill="black"/>
<path d="M20.001 34.002H22.001V36.002H20.001V34.002Z" fill="black"/>
<path d="M22 34.002H24V36.002H22V34.002Z" fill="black"/>
<path d="M24 34H26V36H24V34Z" fill="white"/>
<path d="M26 36H28V38H26V36Z" fill="white"/>
<path d="M29.999 34.002H31.999V36.002H29.999V34.002Z" fill="black"/>
<path d="M32.002 34.002H34.002V36.002H32.002V34.002Z" fill="white"/>
<path d="M34.002 34.002H36.002V36.002H34.002V34.002Z" fill="white"/>
<path d="M36.001 34.002H38.001V36.002H36.001V34.002Z" fill="white"/>
<path d="M38.001 34.002H40.001V36.002H38.001V34.002Z" fill="white"/>
<path d="M40 34.002H42V36.002H40V34.002Z" fill="white"/>
<path d="M0 36.002H2V38.002H0V36.002Z" fill="black"/>
<path d="M1.99902 36.002H3.99902V38.002H1.99902V36.002Z" fill="black"/>
<path d="M3.99902 36.002H5.99902V38.002H3.99902V36.002Z" fill="black"/>
<path d="M5.99805 36.002H7.99805V38.002H5.99805V36.002Z" fill="black"/>
<path d="M7.99805 36.002H9.99805V38.002H7.99805V36.002Z" fill="black"/>
<path d="M9.99707 36.002H11.9971V38.002H9.99707V36.002Z" fill="black"/>
<path d="M12.0029 36.002H14.0029V38.002H12.0029V36.002Z" fill="black"/>
<path d="M14.002 36.002H16.002V38.002H14.002V36.002Z" fill="black"/>
<path d="M16.002 36.002H18.002V38.002H16.002V36.002Z" fill="black"/>
<path d="M18.001 36.002H20.001V38.002H18.001V36.002Z" fill="black"/>
<path d="M20.001 36.002H22.001V38.002H20.001V36.002Z" fill="black"/>
<path d="M22 36.002H24V38.002H22V36.002Z" fill="black"/>
<path d="M24 36.002H26V38.002H24V36.002Z" fill="white"/>
<path d="M28.001 38.0001H30.001V40.0001H28.001V38.0001Z" fill="white"/>
<path d="M32.002 36.002H34.002V38.002H32.002V36.002Z" fill="black"/>
<path d="M34 36H36V38H34V36Z" fill="black"/>
<path d="M36.001 36H38.001V38H36.001V36Z" fill="black"/>
<path d="M38.001 36.002H40.001V38.002H38.001V36.002Z" fill="white"/>
<path d="M40 36.002H42V38.002H40V36.002Z" fill="white"/>
<path d="M0 38.0011H2V40.0011H0V38.0011Z" fill="black"/>
<path d="M1.99902 38.0011H3.99902V40.0011H1.99902V38.0011Z" fill="black"/>
<path d="M3.99902 38.0011H5.99902V40.0011H3.99902V38.0011Z" fill="black"/>
<path d="M5.99805 38.0011H7.99805V40.0011H5.99805V38.0011Z" fill="black"/>
<path d="M7.99805 38.0011H9.99805V40.0011H7.99805V38.0011Z" fill="black"/>
<path d="M9.99707 38.0011H11.9971V40.0011H9.99707V38.0011Z" fill="black"/>
<path d="M12.0029 38.0011H14.0029V40.0011H12.0029V38.0011Z" fill="black"/>
<path d="M14.002 38.0011H16.002V40.0011H14.002V38.0011Z" fill="black"/>
<path d="M16.002 38.0011H18.002V40.0011H16.002V38.0011Z" fill="black"/>
<path d="M18.001 38.0011H20.001V40.0011H18.001V38.0011Z" fill="black"/>
<path d="M20.001 38.0011H22.001V40.0011H20.001V38.0011Z" fill="black"/>
<path d="M22 38.0011H24V40.0011H22V38.0011Z" fill="black"/>
<path d="M24 38.0011H26V40.0011H24V38.0011Z" fill="black"/>
<path d="M26 38.0011H28V40.0011H26V38.0011Z" fill="white"/>
<path d="M38.001 38.0011H40.001V40.0011H38.001V38.0011Z" fill="white"/>
<path d="M40 38.0011H42V40.0011H40V38.0011Z" fill="black"/>
<path d="M0 39.9999H2V41.9999H0V39.9999Z" fill="black"/>
<path d="M1.99902 39.9999H3.99902V41.9999H1.99902V39.9999Z" fill="black"/>
<path d="M3.99902 39.9999H5.99902V41.9999H3.99902V39.9999Z" fill="black"/>
<path d="M5.99805 39.9999H7.99805V41.9999H5.99805V39.9999Z" fill="black"/>
<path d="M7.99805 39.9999H9.99805V41.9999H7.99805V39.9999Z" fill="black"/>
<path d="M9.99707 39.9999H11.9971V41.9999H9.99707V39.9999Z" fill="black"/>
<path d="M12.0029 39.9999H14.0029V41.9999H12.0029V39.9999Z" fill="black"/>
<path d="M14.002 39.9999H16.002V41.9999H14.002V39.9999Z" fill="black"/>
<path d="M16.002 39.9999H18.002V41.9999H16.002V39.9999Z" fill="black"/>
<path d="M27.999 39.9999H29.999V41.9999H27.999V39.9999Z" fill="white"/>
<path d="M26 39.9999H28V41.9999H26V39.9999Z" fill="black"/>
<path d="M29.999 39.9999H31.999V41.9999H29.999V39.9999Z" fill="white"/>
<path d="M32.002 39.9999H34.002V41.9999H32.002V39.9999Z" fill="white"/>
<path d="M34.002 39.9999H36.002V41.9999H34.002V39.9999Z" fill="white"/>
<path d="M38.001 39.9999H40.001V41.9999H38.001V39.9999Z" fill="black"/>
<path d="M0 42H2V44H0V42Z" fill="black"/>
<path d="M1.99902 42H3.99902V44H1.99902V42Z" fill="black"/>
<path d="M3.99902 42H5.99902V44H3.99902V42Z" fill="black"/>
<path d="M5.99805 42H7.99805V44H5.99805V42Z" fill="black"/>
<path d="M7.99805 42H9.99805V44H7.99805V42Z" fill="black"/>
<path d="M9.99707 42H11.9971V44H9.99707V42Z" fill="black"/>
<path d="M12.0029 42H14.0029V44H12.0029V42Z" fill="black"/>
<path d="M14.002 42H16.002V44H14.002V42Z" fill="black"/>
<path d="M16.002 42H18.002V44H16.002V42Z" fill="black"/>
<path d="M18.001 42H20.001V44H18.001V42Z" fill="black"/>
<path d="M18.001 39.9999H20.001V41.9999H18.001V39.9999Z" fill="black"/>
<path d="M22 5.99988H24V7.99988H22V5.99988Z" fill="black"/>
<path d="M23.998 5.99988H25.998V7.99988H23.998V5.99988Z" fill="black"/>
<path d="M25.998 5.99988H27.998V7.99988H25.998V5.99988Z" fill="black"/>
<path d="M27.999 5.99988H29.999V7.99988H27.999V5.99988Z" fill="black"/>
<path d="M29.9971 5.99988H31.9971V7.99988H29.9971V5.99988Z" fill="black"/>
<path d="M32.002 5.99988H34.002V7.99988H32.002V5.99988Z" fill="black"/>
<path d="M34.002 5.99988H36.002V7.99988H34.002V5.99988Z" fill="black"/>
<path d="M36.001 5.99988H38.001V7.99988H36.001V5.99988Z" fill="black"/>
<path d="M19.999 7.9989H21.999V9.9989H19.999V7.9989Z" fill="black"/>
<path d="M22 7.9989H24V9.9989H22V7.9989Z" fill="black"/>
<path d="M23.998 7.9989H25.998V9.9989H23.998V7.9989Z" fill="black"/>
<path d="M25.998 7.9989H27.998V9.9989H25.998V7.9989Z" fill="black"/>
<path d="M27.999 7.9989H29.999V9.9989H27.999V7.9989Z" fill="black"/>
<path d="M29.9971 7.9989H31.9971V9.9989H29.9971V7.9989Z" fill="black"/>
<path d="M32.002 7.9989H34.002V9.9989H32.002V7.9989Z" fill="black"/>
<path d="M34.002 7.9989H36.002V9.9989H34.002V7.9989Z" fill="black"/>
<path d="M18.001 9.99902H20.001V11.999H18.001V9.99902Z" fill="black"/>
<path d="M19.999 9.99902H21.999V11.999H19.999V9.99902Z" fill="black"/>
<path d="M22 9.99902H24V11.999H22V9.99902Z" fill="black"/>
<path d="M23.998 9.99902H25.998V11.999H23.998V9.99902Z" fill="black"/>
<path d="M25.998 9.99902H27.998V11.999H25.998V9.99902Z" fill="black"/>
<path d="M27.999 9.99902H29.999V11.999H27.999V9.99902Z" fill="black"/>
<path d="M29.9971 9.99902H31.9971V11.999H29.9971V9.99902Z" fill="black"/>
<path d="M32.002 9.99902H34.002V11.999H32.002V9.99902Z" fill="black"/>
<path d="M12.0029 2H14.0029V4H12.0029V2Z" fill="black"/>
<path d="M14.002 2H16.002V4H14.002V2Z" fill="black"/>
<path d="M14 0H16V2H14V0Z" fill="black"/>
<path d="M12.0029 4.00012H14.0029V6.00012H12.0029V4.00012Z" fill="black"/>
<path d="M14.002 4.00012H16.002V6.00012H14.002V4.00012Z" fill="black"/>
<path d="M8 5.9989H10V7.9989H8V5.9989Z" fill="black"/>
<path d="M9.99902 5.9989H11.999V7.9989H9.99902V5.9989Z" fill="black"/>
<path d="M10.001 4.00012H12.001V6.00012H10.001V4.00012Z" fill="black"/>
<path d="M12.0029 5.9989H14.0029V7.9989H12.0029V5.9989Z" fill="black"/>
<path d="M14.002 5.9989H16.002V7.9989H14.002V5.9989Z" fill="black"/>
<path d="M6 7.99792H8V9.99792H6V7.99792Z" fill="black"/>
<path d="M8 7.99792H10V9.99792H8V7.99792Z" fill="black"/>
<path d="M9.99902 7.99792H11.999V9.99792H9.99902V7.99792Z" fill="black"/>
<path d="M12.0029 7.99792H14.0029V9.99792H12.0029V7.99792Z" fill="black"/>
<path d="M14.002 7.99792H16.002V9.99792H14.002V7.99792Z" fill="black"/>
</svg>
